#N canvas 199 139 1209 663 10;
#X obj 390 233 outlet OSC-from-serialosc;
#X obj 251 456 inlet OSC-to-serialosc;
#X obj 260 7 loadbang;
#X msg 388 78 \$0;
#X obj 387 108 + 12289;
#X text 34 73 bang for 'rescan';
#X text 139 20 bang for init;
#X text 694 388 this connects;
#X obj 584 277 spigot 0;
#X text 688 340 this auto-connects to first device in list;
#X obj 224 20 bng 15 250 50 0 empty empty empty 17 7 0 10 #fcfcfc #000000 #000000;
#X obj 724 173 t b;
#X obj 579 312 unpack s s f;
#X obj 585 430 float;
#X obj -84 168 float;
#X obj 38 168 float;
#X msg 120 359 connect localhost 12002;
#X msg 672 537 connect localhost \$1;
#X obj 622 388 t b b b f b;
#X msg 711 512 disconnect;
#X obj 262 39 t b b b b 1;
#X obj 17 103 t b b b b;
#X msg 78 132 1;
#X obj 649 341 t f b;
#X msg 697 297 0;
#X obj 410 279 inlet prefix;
#X obj 410 309 prepend set;
#X msg 417 359 /monome;
#X obj 403 395 prepend symbol;
#X obj 373 303 t b;
#X obj 822 495 outlet bang-on-connect;
#X msg 387 136 listen \$1;
#X obj 387 160 netreceive -u -b -f \$1;
#X obj 454 589 netsend -u -b;
#X obj 14 476 netsend -u -b;
#X obj 17 75 bng 15 250 50 0 empty empty empty 17 7 0 10 #fcfcfc #000000 #000000;
#X text 14 625 updated Sept 2023 by David Niemi for monome.org;
#X obj -42 312 osc.format;
#X obj 432 495 osc.format;
#X obj 387 193 osc.parse;
#X obj 487 93 osc.route /serialosc/device /serialosc/remove /serialosc/add;
#X msg -205 270 /serialosc/notify localhost \$1;
#X obj -42 359 list prepend send;
#X obj -42 395 list trim;
#X msg 3 270 /serialosc/list localhost \$1;
#X msg 406 434 /sys/prefix \$1;
#X obj 432 523 list prepend send;
#X obj 432 549 list trim;
#X msg 556 461 /sys/port \$1;
#X obj 822 173 print;
#X connect 1 0 38 0;
#X connect 2 0 20 0;
#X connect 3 0 4 0;
#X connect 4 0 31 0;
#X connect 4 0 14 1;
#X connect 4 0 15 1;
#X connect 4 0 13 1;
#X connect 8 0 12 0;
#X connect 10 0 20 0;
#X connect 11 0 21 0;
#X connect 12 2 23 0;
#X connect 13 0 48 0;
#X connect 14 0 41 0;
#X connect 15 0 44 0;
#X connect 16 0 34 0;
#X connect 17 0 33 0;
#X connect 18 0 30 0;
#X connect 18 1 27 0;
#X connect 18 2 13 0;
#X connect 18 3 17 0;
#X connect 18 4 19 0;
#X connect 19 0 33 0;
#X connect 20 1 21 0;
#X connect 20 2 3 0;
#X connect 20 3 16 0;
#X connect 21 1 14 0;
#X connect 21 2 15 0;
#X connect 21 3 22 0;
#X connect 22 0 8 1;
#X connect 23 0 18 0;
#X connect 23 1 24 0;
#X connect 24 0 8 1;
#X connect 25 0 26 0;
#X connect 25 0 29 0;
#X connect 26 0 27 0;
#X connect 27 0 28 0;
#X connect 28 0 45 0;
#X connect 29 0 27 0;
#X connect 31 0 32 0;
#X connect 32 0 39 0;
#X connect 35 0 21 0;
#X connect 37 0 42 0;
#X connect 38 0 46 0;
#X connect 39 0 0 0;
#X connect 39 0 40 0;
#X connect 40 0 8 0;
#X connect 40 1 11 0;
#X connect 40 2 11 0;
#X connect 40 3 49 0;
#X connect 41 0 37 0;
#X connect 42 0 43 0;
#X connect 43 0 34 0;
#X connect 44 0 37 0;
#X connect 45 0 38 0;
#X connect 46 0 47 0;
#X connect 47 0 33 0;
#X connect 48 0 38 0;
